<?xml version="1.0" standalone="no"?>
<!DOCTYPE svg PUBLIC "-//W3C//DTD SVG 20010904//EN"
 "http://www.w3.org/TR/2001/REC-SVG-20010904/DTD/svg10.dtd">
<svg version="1.0" xmlns="http://www.w3.org/2000/svg"
 width="500.000000pt" height="500.000000pt" viewBox="0 0 500.000000 500.000000"
 preserveAspectRatio="xMidYMid meet">

<g transform="translate(0.000000,500.000000) scale(0.100000,-0.100000)"
fill="#ffffff" stroke="none">
<path d="M3100 3790 c0 -5 5 -10 10 -10 6 0 10 5 10 10 0 6 -4 10 -10 10 -5 0
-10 -4 -10 -10z"/>
<path d="M3155 3779 c-10 -15 3 -25 16 -12 7 7 7 13 1 17 -6 3 -14 1 -17 -5z"/>
<path d="M3074 3749 c-10 -17 13 -36 27 -22 12 12 4 33 -11 33 -5 0 -12 -5
-16 -11z"/>
<path d="M3125 3730 c-8 -14 3 -30 21 -30 8 0 14 9 14 20 0 21 -24 28 -35 10z"/>
<path d="M3053 3694 c-8 -21 13 -42 28 -27 13 13 5 43 -11 43 -6 0 -13 -7 -17
-16z"/>
<path d="M3180 3700 c0 -5 7 -10 15 -10 8 0 15 5 15 10 0 6 -7 10 -15 10 -8 0
-15 -4 -15 -10z"/>
<path d="M3113 3693 c-7 -3 -13 -16 -13 -29 0 -26 -18 -32 -38 -12 -9 9 -15 9
-23 1 -17 -17 -3 -43 23 -43 17 0 19 -3 10 -12 -8 -8 -15 -8 -26 1 -20 17 -39
4 -33 -21 3 -11 0 -21 -9 -25 -8 -3 -14 -14 -14 -24 0 -11 -4 -28 -10 -39 -5
-11 -14 -29 -20 -40 -5 -11 -10 -26 -10 -34 0 -21 -21 -31 -30 -16 -10 16 -43
5 -37 -13 2 -6 14 -12 26 -11 11 0 21 -5 21 -12 0 -19 -21 -29 -30 -14 -4 7
-15 10 -24 7 -17 -7 -22 -36 -6 -38 6 -1 15 -2 20 -3 6 0 10 -4 10 -8 0 -5 0
-11 0 -14 0 -4 -7 -1 -15 6 -8 7 -22 10 -30 6 -22 -8 -18 -37 5 -43 11 -3 20
-9 20 -15 0 -5 -8 -4 -19 1 -22 12 -47 -9 -38 -33 3 -8 -1 -17 -9 -20 -8 -3
-14 -12 -14 -21 0 -8 -4 -23 -9 -33 -5 -9 -12 -26 -16 -36 -4 -15 -8 -17 -17
-8 -19 19 -38 14 -38 -9 0 -16 5 -20 20 -16 12 3 20 0 20 -7 0 -21 -11 -25
-31 -13 -14 9 -21 9 -30 0 -15 -15 -3 -33 22 -33 10 0 19 -7 19 -15 0 -18 -12
-19 -27 -4 -17 17 -46 2 -40 -20 5 -21 -18 -37 -28 -21 -4 6 -15 10 -27 10
-15 0 -19 -5 -15 -19 6 -24 -17 -35 -33 -16 -6 7 -20 11 -30 8 -11 -3 -20 0
-20 6 0 6 -10 11 -21 11 -17 0 -20 -5 -17 -25 4 -19 1 -25 -13 -25 -10 0 -21
5 -24 11 -4 5 -14 9 -23 7 -10 -2 -22 3 -28 11 -16 21 -44 6 -44 -24 0 -27 -9
-32 -27 -14 -15 15 -43 4 -43 -17 0 -12 7 -15 25 -12 16 3 25 1 25 -7 0 -19
27 -26 39 -11 6 8 9 21 5 30 -7 18 7 21 36 6 11 -5 29 -14 40 -20 39 -20 56
-11 51 27 -2 18 20 27 29 12 5 -8 3 -17 -7 -24 -21 -15 -9 -48 14 -43 10 2 18
12 18 23 0 27 16 37 30 18 7 -9 19 -14 28 -10 10 4 20 0 25 -10 12 -21 42 -10
42 16 0 24 16 36 26 19 4 -6 2 -14 -4 -16 -21 -7 -14 -42 8 -42 13 0 20 7 20
19 0 26 17 36 35 21 20 -16 45 -5 45 20 0 23 3 24 30 8 17 -11 22 -10 30 2 14
21 7 34 -18 38 -12 2 -22 8 -22 13 0 11 11 11 30 -1 19 -12 42 7 35 30 -3 11
1 20 10 24 8 3 15 12 15 21 0 8 4 23 9 33 5 9 12 26 16 37 6 19 7 19 16 2 7
-11 17 -16 29 -12 10 3 21 1 25 -5 3 -5 14 -10 25 -10 10 0 20 -7 24 -15 3 -8
1 -15 -4 -15 -22 0 -9 -41 16 -50 22 -9 24 -13 14 -25 -16 -20 -5 -45 20 -45
11 0 20 -4 20 -9 0 -15 -18 -23 -25 -11 -11 18 -35 11 -35 -11 0 -16 5 -20 20
-16 11 3 20 1 20 -4 0 -5 11 -14 25 -19 26 -10 32 -24 15 -35 -5 -3 -10 1 -10
9 0 10 -9 16 -21 16 -28 0 -21 -34 9 -38 12 -2 22 -8 22 -13 0 -5 9 -9 21 -9
11 0 27 -7 36 -16 9 -8 22 -13 29 -10 7 3 16 1 19 -4 11 -18 45 -11 45 9 0 24
16 36 26 20 3 -6 1 -15 -6 -19 -16 -10 -5 -43 13 -38 6 3 13 14 15 26 4 23 26
30 37 12 4 -6 15 -10 24 -8 10 2 25 -3 34 -10 20 -17 37 -8 37 19 0 20 24 26
35 9 4 -6 15 -8 26 -5 11 4 19 2 19 -5 0 -8 10 -10 24 -8 15 3 27 0 30 -8 3
-8 15 -14 26 -14 11 0 20 -4 20 -8 0 -17 -13 -21 -31 -9 -14 9 -21 9 -30 0
-16 -16 -1 -36 22 -30 11 3 19 0 19 -7 0 -20 -12 -27 -26 -15 -19 16 -44 4
-44 -21 0 -21 -19 -27 -36 -10 -5 5 -15 6 -23 0 -12 -7 -12 -11 -2 -24 11 -12
17 -14 27 -5 11 9 14 7 14 -11 0 -17 -4 -21 -17 -15 -33 13 -48 10 -51 -11 -3
-18 -10 -21 -45 -21 -23 1 -46 6 -50 12 -6 7 -10 6 -14 -2 -3 -8 -24 -13 -55
-13 -36 0 -55 -5 -65 -17 -7 -10 -13 -13 -12 -8 4 26 -4 32 -48 33 -27 1 -62
3 -80 5 -17 2 -30 -1 -27 -5 6 -10 -26 2 -45 16 -11 8 -13 8 -7 -1 4 -7 5 -13
2 -13 -3 0 -10 10 -17 21 -9 17 -8 20 3 13 11 -7 11 -5 0 9 -8 9 -12 22 -9 29
2 7 -5 28 -16 47 -12 19 -16 32 -10 28 6 -4 14 0 17 9 3 8 2 13 -3 10 -5 -3
-12 1 -15 10 -4 10 -2 13 7 9 6 -4 4 0 -5 8 -10 8 -14 18 -10 22 4 4 -5 0 -19
-9 -19 -12 -25 -24 -24 -46 1 -16 -2 -27 -7 -24 -4 3 -8 0 -8 -5 0 -22 -2 -26
-18 -45 -9 -11 -11 -16 -5 -12 9 5 11 2 7 -8 -3 -9 -11 -13 -16 -10 -6 4 -6
-1 0 -13 8 -14 8 -20 -1 -22 -48 -7 -75 -7 -95 0 -15 6 -21 5 -17 -1 7 -12
-23 -2 -44 14 -8 6 -12 7 -9 1 3 -6 -4 -10 -17 -10 -13 0 -21 4 -18 8 3 5 -4
4 -16 -3 -12 -6 -19 -16 -15 -21 3 -6 9 -8 12 -5 3 3 12 -3 20 -15 8 -11 11
-23 8 -26 -3 -4 -6 -1 -6 5 0 6 -23 14 -51 18 -37 5 -58 15 -80 36 -16 16 -29
26 -29 22 0 -5 -7 2 -16 14 -8 12 -20 19 -26 16 -6 -4 -6 1 1 14 9 17 16 20
34 14 12 -5 29 -8 37 -7 8 1 19 -1 25 -4 5 -3 31 -4 57 -3 27 0 46 -3 44 -7
-3 -4 1 -8 9 -8 8 0 12 4 10 8 -3 4 2 10 11 13 8 3 12 2 9 -4 -6 -10 7 -14 33
-11 8 1 21 -4 30 -11 12 -10 14 -10 8 0 -7 12 -3 14 44 14 22 1 26 5 24 29 -1
16 2 26 7 23 9 -5 13 9 10 34 -1 6 3 12 9 12 6 0 9 4 6 8 -3 5 1 21 9 36 8 14
10 24 5 21 -6 -3 -7 1 -4 9 3 9 11 13 18 9 6 -3 8 -3 4 1 -4 5 -3 19 3 33 7
18 6 22 -4 17 -6 -4 -2 3 10 15 13 12 20 28 16 37 -4 12 -10 8 -24 -15 -10
-17 -23 -31 -29 -31 -5 0 -17 -15 -26 -32 -9 -18 -26 -41 -38 -51 -11 -10 -14
-15 -6 -11 8 4 2 -6 -15 -21 -16 -16 -37 -31 -45 -32 -38 -9 -70 -8 -92 0 -29
12 -68 15 -62 5 5 -7 -20 -1 -41 10 -5 3 -34 6 -65 7 -30 0 -60 4 -67 8 -6 4
-14 3 -18 -2 -4 -7 -15 -7 -30 -1 -14 5 -25 7 -25 5 0 -2 -12 0 -26 5 -16 7
-23 7 -19 0 4 -7 -2 -7 -18 -1 -14 6 -28 7 -31 4 -3 -4 -6 -2 -6 3 0 5 -19 9
-42 7 -64 -2 -64 -3 -46 -17 10 -7 14 -17 10 -21 -4 -5 -2 -5 5 -2 11 7 36
-10 90 -60 13 -13 28 -23 33 -23 4 0 18 -12 30 -27 12 -16 19 -21 15 -13 -4 8
1 6 9 -4 9 -11 16 -17 16 -13 0 4 8 -1 18 -10 10 -10 27 -23 38 -30 15 -10 0
-12 -83 -12 -85 -1 -108 -4 -138 -22 -35 -21 -36 -21 -56 -3 -19 17 -40 19
-252 19 l-230 0 -36 -97 c-19 -54 -41 -98 -48 -98 -9 0 -2 30 22 98 19 53 35
98 35 100 0 2 -107 2 -237 0 -230 -3 -239 -4 -276 -27 -42 -26 -64 -63 -97
-167 -28 -86 -23 -112 28 -147 l38 -27 275 0 c240 0 278 2 299 17 22 16 23 15
17 0 -6 -15 4 -17 99 -17 l106 0 15 40 16 40 59 0 c33 0 68 5 79 10 23 13 23
13 4 -40 -8 -24 -14 -45 -12 -46 2 -2 112 -4 245 -4 l241 -1 -17 -37 c-9 -20
-25 -50 -36 -66 -14 -20 -15 -27 -5 -22 7 4 5 0 -5 -8 -15 -12 -16 -16 -5 -16
10 -1 8 -5 -6 -16 -11 -8 -19 -24 -17 -35 2 -14 -3 -22 -17 -26 -12 -3 -20
-11 -19 -19 2 -7 -6 -19 -16 -27 -20 -14 -16 -54 4 -42 5 3 10 1 10 -4 0 -18
34 -7 64 22 23 22 32 25 43 15 12 -9 14 -9 11 3 -1 8 7 24 19 36 17 17 23 19
27 7 3 -8 13 -14 21 -14 9 0 13 5 10 10 -4 6 -11 8 -16 5 -5 -4 -9 -2 -9 3 0
13 26 33 36 30 5 -2 11 2 13 7 6 16 38 36 53 33 7 -2 12 2 11 8 -1 6 12 19 29
29 22 13 29 14 24 4 -4 -8 1 -4 11 9 10 13 22 20 26 16 12 -12 8 -82 -5 -87
-10 -3 -10 -7 0 -20 8 -9 20 -13 28 -10 8 3 14 -1 14 -11 0 -19 -11 -21 -28
-4 -10 10 -17 10 -32 0 -17 -10 -20 -10 -20 3 0 8 -9 15 -20 15 -13 0 -20 -7
-20 -19 0 -11 -5 -23 -11 -26 -5 -4 -15 -18 -20 -32 -8 -21 -12 -23 -24 -13
-20 17 -45 5 -45 -21 0 -16 -4 -20 -17 -14 -32 12 -36 10 -51 -18 -11 -23 -16
-26 -28 -16 -19 16 -44 4 -44 -21 0 -11 -7 -20 -15 -20 -8 0 -15 5 -15 11 0 6
-9 9 -20 6 -28 -7 -34 8 -14 38 16 25 16 25 -15 31 -32 7 -39 22 -19 42 9 9 9
15 1 23 -16 16 -47 3 -39 -16 7 -19 -12 -31 -27 -16 -6 6 -20 11 -32 11 -12 0
-26 5 -33 12 -14 14 -45 -9 -38 -29 3 -7 0 -13 -8 -13 -22 0 -26 13 -8 26 13
10 14 15 5 25 -14 14 -47 4 -37 -12 11 -19 -18 -30 -31 -12 -18 25 -48 9 -43
-22 3 -14 0 -26 -8 -29 -15 -6 -27 21 -14 29 19 12 11 45 -10 45 -15 0 -20 -7
-20 -25 0 -16 -6 -25 -15 -25 -8 0 -15 5 -15 10 0 6 -11 10 -24 10 -14 0 -28
5 -32 11 -3 6 -15 9 -25 6 -10 -3 -23 1 -29 8 -16 19 -43 7 -37 -16 7 -26 -11
-34 -32 -15 -10 9 -25 14 -35 10 -9 -3 -16 -1 -16 6 0 6 -10 10 -22 8 -28 -4
-30 -31 -3 -36 11 -2 26 -9 33 -15 11 -9 10 -12 -2 -19 -20 -11 -21 -34 -2
-41 17 -7 26 1 26 24 0 25 21 35 32 15 6 -11 16 -15 28 -11 10 3 21 1 25 -5 3
-5 15 -10 27 -10 16 0 19 5 16 25 -5 25 14 36 27 15 3 -6 17 -10 31 -10 13 0
24 -5 24 -11 0 -6 10 -9 23 -7 12 2 27 -3 33 -11 18 -23 47 -6 40 24 -7 29 7
33 31 9 9 -8 21 -13 29 -10 18 7 23 -16 7 -32 -16 -16 -1 -42 24 -42 10 0 13
-5 8 -17 -4 -10 -8 -25 -9 -33 -3 -18 -14 -48 -27 -72 -15 -29 -10 -46 16 -52
14 -4 23 -11 20 -17 -5 -7 -11 -6 -21 2 -19 15 -46 3 -42 -19 2 -11 -3 -26
-10 -35 -17 -20 -8 -37 19 -37 20 0 26 -15 9 -25 -5 -3 -10 -1 -10 4 0 6 -9
11 -20 11 -13 0 -20 -7 -20 -20 0 -13 7 -20 20 -20 18 0 20 -4 15 -34 -4 -21
-2 -36 5 -41 15 -9 40 13 40 36 0 20 15 25 25 9 12 -19 35 -10 45 16 9 22 13
24 25 14 20 -16 45 -5 45 20 0 20 24 28 35 10 9 -15 35 0 35 20 0 25 17 35 35
20 18 -15 35 -5 35 20 0 24 21 31 39 13 9 -10 17 -11 24 -4 14 14 0 44 -18 37
-9 -3 -15 0 -15 9 0 18 12 19 27 4 15 -15 32 -3 44 28 8 21 12 23 24 13 20
-17 45 -5 45 21 0 15 4 19 15 15 8 -3 22 -9 30 -12 14 -6 17 -1 31 45 4 11 7
12 16 3 20 -20 48 -14 48 8 0 19 4 20 38 14 20 -4 39 -11 40 -15 2 -5 12 -9
23 -9 11 0 27 -4 37 -9 22 -11 61 -27 86 -35 15 -5 16 -9 6 -21 -15 -18 -6
-45 15 -45 14 0 19 11 16 38 -1 6 2 12 7 12 17 0 21 -12 9 -31 -9 -14 -9 -21
0 -30 17 -17 43 -3 43 21 0 12 5 18 10 15 7 -4 7 -12 0 -25 -7 -13 -6 -21 5
-30 9 -7 18 -10 22 -6 3 3 14 -1 24 -10 10 -9 25 -14 33 -11 8 3 17 -1 20 -10
4 -9 14 -13 25 -10 12 3 22 -1 25 -10 4 -9 14 -13 26 -10 10 3 24 -1 31 -9 6
-8 20 -14 30 -14 10 0 21 -5 24 -10 3 -5 15 -10 26 -10 22 0 25 -10 7 -28 -8
-8 -8 -15 1 -26 16 -19 41 -10 41 15 0 10 5 19 10 19 13 0 13 -6 0 -30 -7 -13
-6 -21 5 -30 18 -15 35 -5 35 21 0 10 4 19 10 19 5 0 7 -13 4 -30 -6 -29 1
-36 29 -31 4 1 15 -6 24 -14 8 -9 21 -14 29 -11 7 3 18 -2 24 -9 7 -8 16 -12
21 -9 5 2 19 -2 32 -11 13 -8 27 -12 30 -9 4 4 13 1 22 -6 20 -16 47 -5 43 18
-2 11 3 26 10 35 17 20 6 40 -19 34 -23 -6 -30 13 -12 32 18 18 12 35 -16 39
-19 3 -21 8 -15 40 4 20 11 43 16 49 15 18 2 43 -22 43 -22 0 -27 15 -9 26 6
3 9 15 7 25 -3 10 -1 22 4 25 17 10 9 35 -16 44 -25 9 -35 30 -14 30 6 0 9 10
7 23 -2 12 3 27 11 33 16 13 7 34 -15 34 -8 0 -14 -9 -14 -19 0 -21 -13 -34
-24 -24 -3 3 -1 12 5 19 6 7 9 21 7 31 -2 10 2 23 10 28 18 14 5 45 -19 45
-22 0 -25 20 -6 39 10 10 8 15 -7 26 -10 8 -23 12 -27 10 -5 -3 -9 0 -9 4 0 6
15 9 33 8 32 -1 32 0 35 49 2 27 8 55 14 62 7 9 7 13 -1 13 -6 0 -11 17 -11
39 0 36 -3 40 -27 44 -27 4 -27 4 3 6 29 1 33 5 58 74 14 39 28 82 30 93 3 12
9 30 15 40 6 11 16 32 21 48 10 28 11 28 25 10 10 -15 16 -16 26 -7 16 16 3
47 -16 39 -9 -3 -15 0 -15 9 0 17 16 20 26 4 3 -6 15 -9 25 -6 10 3 22 1 25
-4 10 -17 34 -9 34 12 0 16 -5 20 -20 16 -13 -3 -20 0 -20 10 0 10 6 13 18 8
9 -3 19 -7 22 -7 21 -2 30 5 30 20 0 26 11 34 26 21 18 -15 44 -4 44 19 0 28
11 34 31 16 21 -19 39 -11 39 16 0 24 20 37 30 20 11 -18 40 -4 40 19 0 24 21
32 38 14 17 -16 32 -8 32 17 0 20 26 35 35 20 11 -18 35 -10 35 11 0 16 -5 20
-20 16 -13 -3 -20 0 -20 10 0 10 6 13 18 8 31 -12 35 -10 50 18 11 23 16 26
28 16 19 -16 44 -4 44 21 0 18 4 20 35 14 31 -5 35 -4 35 14 0 25 19 39 30 22
11 -18 40 -5 40 19 0 10 7 21 15 25 8 3 15 1 15 -4 0 -6 9 -10 20 -10 13 0 20
7 20 19 0 10 7 24 15 31 8 7 15 21 15 31 0 21 11 24 27 8 17 -17 46 -2 41 19
-3 10 1 23 9 31 18 17 11 36 -13 36 -12 0 -19 -7 -19 -20 0 -27 -16 -37 -30
-18 -6 8 -20 13 -31 11 -10 -2 -24 3 -30 11 -15 19 -44 7 -44 -19 0 -20 -11
-26 -23 -14 -3 4 1 13 9 22 10 10 12 18 5 25 -14 14 -44 0 -38 -17 7 -16 -19
-30 -28 -16 -12 19 -45 11 -45 -10 0 -11 -4 -20 -9 -20 -6 0 -9 12 -8 26 3 36
-20 42 -33 10 -10 -27 -24 -33 -36 -15 -3 6 -15 9 -25 6 -10 -3 -23 1 -29 8
-15 19 -40 8 -40 -17 0 -15 -4 -18 -17 -12 -10 4 -28 7 -40 7 -13 -1 -23 3
-23 8 0 5 -9 9 -20 9 -13 0 -20 -7 -20 -19 0 -23 -16 -36 -25 -21 -3 5 -17 10
-30 10 -13 0 -27 5 -30 10 -11 18 -35 10 -45 -16 -6 -14 -15 -22 -21 -18 -8 4
-8 9 0 17 18 18 13 37 -10 37 -16 0 -20 -5 -16 -20 6 -23 -21 -28 -41 -8 -13
13 -42 -6 -42 -28 0 -8 -4 -14 -10 -14 -14 0 -13 13 2 28 9 9 9 15 1 23 -16
16 -47 3 -39 -16 7 -20 -12 -29 -29 -15 -18 15 -45 6 -45 -15 0 -8 -4 -15 -10
-15 -13 0 -13 13 0 26 8 8 6 15 -4 23 -19 16 -36 6 -36 -20 0 -20 -24 -26 -36
-8 -3 6 -15 9 -25 6 -10 -3 -22 -1 -25 4 -10 16 -36 9 -41 -12 -4 -14 -11 -18
-22 -13 -9 3 -24 7 -33 8 -10 1 -21 5 -24 9 -15 15 -35 6 -44 -19 -6 -14 -15
-22 -20 -19 -8 5 -7 11 1 21 14 17 5 44 -16 44 -9 0 -15 -9 -15 -25 0 -24 -10
-32 -23 -18 -4 3 -2 12 4 19 16 19 4 44 -21 44 -20 0 -28 24 -10 35 15 9 0 35
-21 35 -21 0 -24 12 -9 40 8 15 6 21 -9 29 -10 6 -21 8 -25 4 -3 -3 -5 11 -3
33 1 21 8 44 16 50 22 17 6 47 -20 39 -19 -6 -21 -4 -15 16 13 44 11 54 -11
57 -24 3 -31 26 -13 37 6 4 7 12 1 23 -6 11 -4 20 7 28 13 10 14 15 3 27 -7 9
-19 13 -27 10 -17 -6 -19 18 -3 34 17 17 3 43 -22 43 -16 0 -20 4 -14 18 3 9
7 19 7 22 2 22 -6 30 -27 30 -29 0 -30 3 -13 30 10 16 10 22 -2 34 -8 7 -21
12 -27 9z m-63 -143 c0 -5 -4 -10 -10 -10 -5 0 -10 5 -10 10 0 6 5 10 10 10 6
0 10 -4 10 -10z m120 -40 c0 -5 -5 -10 -11 -10 -5 0 -7 5 -4 10 3 6 8 10 11
10 2 0 4 -4 4 -10z m35 -69 c3 -5 1 -12 -5 -16 -5 -3 -10 1 -10 9 0 18 6 21
15 7z m15 -131 c0 -5 -5 -10 -11 -10 -5 0 -7 5 -4 10 3 6 8 10 11 10 2 0 4 -4
4 -10z m35 -70 c3 -5 -1 -10 -10 -10 -9 0 -13 5 -10 10 3 6 8 10 10 10 2 0 7
-4 10 -10z m-390 -40 c3 -5 1 -10 -4 -10 -6 0 -11 5 -11 10 0 6 2 10 4 10 3 0
8 -4 11 -10z m115 -50 c0 -5 -4 -10 -10 -10 -5 0 -10 5 -10 10 0 6 5 10 10 10
6 0 10 -4 10 -10z m50 -20 c0 -5 -4 -10 -10 -10 -5 0 -10 5 -10 10 0 6 5 10
10 10 6 0 10 -4 10 -10z m80 -90 c0 -5 -2 -10 -4 -10 -3 0 -8 5 -11 10 -3 6
-1 10 4 10 6 0 11 -4 11 -10z m190 0 c0 -5 -2 -10 -4 -10 -3 0 -8 5 -11 10 -3
6 -1 10 4 10 6 0 11 -4 11 -10z m-430 -30 c0 -5 -2 -10 -4 -10 -3 0 -8 5 -11
10 -3 6 -1 10 4 10 6 0 11 -4 11 -10z m1420 -26 c0 -8 -5 -12 -10 -9 -6 4 -8
11 -5 16 9 14 15 11 15 -7z m305 7 c3 -5 1 -12 -5 -16 -5 -3 -10 1 -10 9 0 18
6 21 15 7z m-425 -21 c0 -5 -4 -10 -10 -10 -5 0 -10 5 -10 10 0 6 5 10 10 10
6 0 10 -4 10 -10z m-1450 -20 c0 -5 -4 -10 -10 -10 -5 0 -10 5 -10 10 0 6 5
10 10 10 6 0 10 -4 10 -10z m-75 -48 c-3 -4 -10 0 -15 8 -6 9 -5 17 3 22 13 8
24 -19 12 -30z m130 28 c3 -5 1 -10 -4 -10 -6 0 -11 5 -11 10 0 6 2 10 4 10 3
0 8 -4 11 -10z m835 0 c0 -5 -4 -10 -10 -10 -5 0 -10 5 -10 10 0 6 5 10 10 10
6 0 10 -4 10 -10z m975 0 c3 -5 -1 -10 -9 -10 -9 0 -16 5 -16 10 0 6 4 10 9
10 6 0 13 -4 16 -10z m-80 -29 c3 -5 1 -12 -5 -16 -5 -3 -10 1 -10 9 0 18 6
21 15 7z m-1235 -95 c0 -3 -4 -8 -10 -11 -5 -3 -10 -1 -10 4 0 6 5 11 10 11 6
0 10 -2 10 -4z m180 -5 c0 -6 -4 -13 -10 -16 -5 -3 -10 1 -10 9 0 9 5 16 10
16 6 0 10 -4 10 -9z m175 0 c3 -5 1 -12 -5 -16 -5 -3 -10 1 -10 9 0 18 6 21
15 7z m50 -20 c3 -5 1 -12 -5 -16 -5 -3 -10 1 -10 9 0 18 6 21 15 7z m529 -70
c3 -5 -1 -11 -9 -15 -9 -3 -15 0 -15 9 0 16 16 20 24 6z m-74 -35 c0 -3 -4 -8
-10 -11 -5 -3 -10 -1 -10 4 0 6 5 11 10 11 6 0 10 -2 10 -4z m-2690 -185 c0
-5 -4 -21 -10 -35 -9 -25 -12 -26 -99 -26 -59 0 -92 -4 -98 -12 -17 -23 -45
-107 -38 -118 3 -5 44 -10 90 -10 l84 0 -10 -30 -11 -30 -108 0 c-100 0 -111
2 -136 23 l-27 24 28 78 c34 91 57 120 105 134 46 12 230 14 230 2z m140 -1
c0 -5 -14 -47 -30 -92 -17 -46 -28 -88 -25 -95 6 -17 96 -17 118 0 9 6 31 53
49 102 l33 90 48 3 c26 2 47 1 47 -2 0 -2 -16 -50 -36 -105 -36 -99 -37 -101
-89 -131 -50 -28 -58 -30 -164 -30 -133 0 -136 2 -102 99 63 180 57 171 107
171 24 0 44 -4 44 -10z m566 -15 c27 -37 -4 -110 -61 -142 -52 -29 -162 -33
-167 -6 -2 10 -12 -8 -23 -40 l-19 -57 -48 0 c-26 0 -48 2 -48 4 0 6 67 190
84 231 l16 37 126 -3 c112 -4 127 -6 140 -24z m184 16 c0 -5 -18 -58 -40 -118
-43 -117 -64 -143 -116 -143 l-33 0 35 98 c47 130 55 144 84 159 29 15 70 17
70 4z m309 0 c43 -12 47 -33 22 -108 -31 -90 -44 -109 -91 -133 -33 -17 -59
-20 -155 -20 -63 0 -115 3 -115 6 0 4 21 64 46 135 l46 129 112 -1 c61 -1 122
-4 135 -8z m391 0 c0 -5 -4 -21 -10 -35 -9 -25 -12 -26 -105 -26 -52 0 -95 -2
-95 -4 0 -2 -3 -11 -6 -20 -5 -14 6 -16 79 -16 l86 0 -10 -30 -11 -30 -90 0
c-80 0 -89 -2 -86 -17 3 -15 17 -18 91 -21 48 -1 87 -5 87 -7 0 -2 -5 -16 -12
-30 -11 -25 -13 -25 -118 -25 -100 0 -109 2 -133 24 l-27 25 34 93 c19 51 37
101 41 111 6 15 23 17 146 17 80 0 139 -4 139 -9z m164 -7 c3 -9 6 -29 6 -44
0 -46 16 -44 61 10 41 49 44 50 96 50 29 0 53 -3 53 -7 0 -4 -28 -35 -61 -69
l-62 -62 12 -49 c7 -26 14 -56 17 -65 5 -16 -2 -18 -54 -18 l-59 0 -8 53 -7
52 -46 -53 c-45 -50 -49 -52 -99 -52 -29 0 -53 3 -53 7 0 4 27 35 61 69 l61
62 -16 55 c-9 30 -16 60 -16 66 0 7 21 11 54 11 40 0 55 -4 60 -16z m546 7 c0
-5 -4 -21 -10 -35 -9 -25 -12 -26 -105 -26 -52 0 -95 -2 -95 -4 0 -2 -3 -11
-6 -20 -5 -14 6 -16 79 -16 l86 0 -10 -30 -11 -30 -90 0 c-80 0 -89 -2 -86
-17 3 -15 17 -18 91 -21 48 -1 87 -5 87 -7 0 -2 -5 -16 -12 -30 -11 -25 -13
-25 -118 -25 -100 0 -109 2 -133 24 l-27 25 34 93 c19 51 37 101 41 111 6 15
23 17 146 17 80 0 139 -4 139 -9z m-2356 -126 c-5 -11 -22 -15 -65 -15 -48 0
-57 3 -53 15 5 11 22 15 65 15 48 0 57 -3 53 -15z m1822 -188 c21 -2 -1 -4
-51 -4 -49 0 -75 2 -57 4 18 3 36 11 39 20 6 14 7 14 18 0 6 -9 29 -17 51 -20z
m-483 5 c36 -6 42 -18 16 -32 -17 -10 -20 -9 -14 2 4 7 -2 3 -12 -8 -10 -12
-30 -29 -45 -38 -25 -17 -27 -16 -37 2 -9 16 -6 23 12 36 12 9 16 14 10 11
-16 -8 -16 0 -2 26 7 14 16 18 27 13 9 -4 29 -9 45 -12z m247 -82 c0 -5 -12
-10 -27 -11 l-28 -1 25 -8 c25 -8 25 -8 -5 -10 -24 -2 -26 -4 -7 -7 32 -6 27
-23 -7 -23 -37 0 -45 11 -30 44 10 20 19 26 46 26 18 0 33 -4 33 -10z m100 0
c0 -5 -12 -11 -27 -11 -24 -2 -25 -2 -5 -6 43 -8 15 -43 -34 -43 -32 0 -33 0
-19 27 7 14 20 30 27 34 18 12 58 11 58 -1z m100 0 c0 -5 -7 -10 -15 -10 -9 0
-20 -11 -25 -25 -5 -14 -15 -25 -21 -25 -7 0 -9 9 -5 25 4 14 2 25 -4 25 -5 0
-10 5 -10 10 0 6 18 10 40 10 22 0 40 -4 40 -10z m140 -5 c0 -7 -8 -19 -17
-24 -10 -6 -12 -11 -5 -11 6 0 12 -4 12 -10 0 -5 -17 -10 -37 -10 l-38 1 30
24 c23 19 26 25 13 25 -10 0 -18 5 -18 10 0 6 14 10 30 10 20 0 30 -5 30 -15z
m105 5 c4 -6 -1 -22 -9 -35 -21 -32 -76 -36 -76 -6 0 39 67 71 85 41z m101 -4
c3 -8 0 -24 -6 -36 -9 -16 -19 -20 -42 -18 -39 4 -45 21 -19 47 24 24 59 28
67 7z m104 5 c0 -5 -4 -21 -10 -35 -7 -20 -17 -26 -38 -26 -16 0 -31 3 -35 6
-6 7 12 45 28 56 14 11 55 10 55 -1z m-724 -151 c0 -11 -6 -20 -13 -20 -11 0
-11 5 -3 20 6 11 12 20 13 20 2 0 3 -9 3 -20z m137 8 c4 -10 7 -10 18 0 9 8
52 12 140 12 93 0 128 -3 132 -12 2 -7 -3 -18 -12 -24 -13 -10 -13 -15 -2 -27
7 -9 19 -13 27 -10 8 3 14 -1 14 -11 0 -19 -11 -21 -28 -4 -13 13 -46 -8 -36
-24 11 -18 -18 -27 -34 -12 -8 9 -20 13 -28 10 -7 -3 -18 2 -25 10 -7 8 -20
12 -30 9 -11 -4 -19 -1 -19 5 0 8 -10 10 -25 8 -18 -4 -25 -1 -25 10 0 10 -7
13 -24 10 -15 -3 -27 1 -35 13 -13 22 -41 14 -41 -12 0 -10 -4 -19 -10 -19 -5
0 -7 13 -3 30 5 26 3 30 -16 30 -14 0 -21 -6 -21 -20 0 -12 -7 -20 -17 -20
-13 0 -14 3 -5 12 7 7 12 20 12 30 0 15 8 18 44 18 26 0 46 -5 49 -12z m331
-29 c-3 -5 -10 -7 -15 -3 -5 3 -7 10 -3 15 3 5 10 7 15 3 5 -3 7 -10 3 -15z
m-602 -11 c-9 -9 -15 -9 -24 0 -9 9 -7 12 12 12 19 0 21 -3 12 -12z m-853 -63
c-6 -6 -13 -5 -19 5 -6 9 -5 17 3 22 15 9 29 -14 16 -27z m1141 25 c0 -5 -4
-10 -10 -10 -5 0 -10 5 -10 10 0 6 5 10 10 10 6 0 10 -4 10 -10z m-790 -20 c0
-5 -2 -10 -4 -10 -3 0 -8 5 -11 10 -3 6 -1 10 4 10 6 0 11 -4 11 -10z m900
-20 c0 -5 -4 -10 -10 -10 -5 0 -10 5 -10 10 0 6 5 10 10 10 6 0 10 -4 10 -10z
m166 -17 c-10 -10 -19 5 -10 18 6 11 8 11 12 0 2 -7 1 -15 -2 -18z m-946 -3
c0 -5 -4 -10 -10 -10 -5 0 -10 5 -10 10 0 6 5 10 10 10 6 0 10 -4 10 -10z
m830 0 c0 -5 -4 -10 -10 -10 -5 0 -10 5 -10 10 0 6 5 10 10 10 6 0 10 -4 10
-10z m-610 -20 c0 -5 -4 -10 -10 -10 -5 0 -10 5 -10 10 0 6 5 10 10 10 6 0 10
-4 10 -10z m-70 -30 c0 -5 -4 -10 -10 -10 -5 0 -10 5 -10 10 0 6 5 10 10 10 6
0 10 -4 10 -10z m-120 -20 c0 -5 -4 -10 -10 -10 -5 0 -10 5 -10 10 0 6 5 10
10 10 6 0 10 -4 10 -10z m50 -14 c0 -3 -4 -8 -10 -11 -5 -3 -10 -1 -10 4 0 6
5 11 10 11 6 0 10 -2 10 -4z m1229 -105 c-15 -5 -22 6 -14 19 6 9 10 9 16 -1
5 -8 4 -15 -2 -18z m-509 -51 c0 -5 -5 -10 -11 -10 -5 0 -7 5 -4 10 3 6 8 10
11 10 2 0 4 -4 4 -10z m-725 -29 c3 -5 1 -12 -5 -16 -5 -3 -10 1 -10 9 0 18 6
21 15 7z m-255 -25 c0 -11 -19 -15 -25 -6 -3 5 1 10 9 10 9 0 16 -2 16 -4z
m1520 -130 c0 -3 -4 -8 -10 -11 -5 -3 -10 -1 -10 4 0 6 5 11 10 11 6 0 10 -2
10 -4z m-80 -40 c0 -3 -4 -8 -10 -11 -5 -3 -10 -1 -10 4 0 6 5 11 10 11 6 0
10 -2 10 -4z m107 -48 c-16 -10 -21 -2 -13 19 6 15 9 15 16 3 6 -9 5 -17 -3
-22z"/>
<path d="M1940 2411 c-17 -33 -11 -41 31 -41 50 0 79 15 79 40 0 17 -7 20 -50
20 -38 0 -52 -4 -60 -19z"/>
<path d="M2442 2368 c-12 -35 -22 -66 -22 -70 0 -13 85 -9 102 5 16 13 48 87
48 112 0 11 -13 15 -53 15 l-53 0 -22 -62z"/>
<path d="M3356 2074 c-4 -11 -1 -14 11 -12 9 2 18 9 21 16 6 18 -25 15 -32 -4z"/>
<path d="M3467 2083 c-12 -11 -8 -23 7 -23 8 0 16 7 20 15 5 15 -14 21 -27 8z"/>
<path d="M3578 2083 c7 -3 16 -2 19 1 4 3 -2 6 -13 5 -11 0 -14 -3 -6 -6z"/>
<path d="M3086 1953 c-11 -11 -6 -23 9 -23 8 0 15 4 15 9 0 13 -16 22 -24 14z"/>
<path d="M3262 1941 c2 -7 7 -12 11 -12 12 1 9 15 -3 20 -7 2 -11 -2 -8 -8z"/>
<path d="M3137 1934 c-8 -8 1 -24 14 -24 5 0 9 7 9 15 0 15 -12 20 -23 9z"/>
<path d="M3190 1905 c0 -9 5 -15 11 -13 6 2 11 8 11 13 0 5 -5 11 -11 13 -6 2
-11 -4 -11 -13z"/>
<path d="M3240 1885 c0 -8 7 -15 15 -15 8 0 15 7 15 15 0 8 -7 15 -15 15 -8 0
-15 -7 -15 -15z"/>
<path d="M3167 3664 c-14 -15 -6 -34 14 -34 14 0 19 5 17 17 -3 18 -20 27 -31
17z"/>
<path d="M2990 3650 c0 -5 5 -10 10 -10 6 0 10 5 10 10 0 6 -4 10 -10 10 -5 0
-10 -4 -10 -10z"/>
<path d="M3220 3630 c0 -5 5 -10 10 -10 6 0 10 5 10 10 0 6 -4 10 -10 10 -5 0
-10 -4 -10 -10z"/>
<path d="M2970 3600 c0 -5 5 -10 10 -10 6 0 10 5 10 10 0 6 -4 10 -10 10 -5 0
-10 -4 -10 -10z"/>
<path d="M3197 3584 c-9 -10 2 -24 19 -24 8 0 14 7 14 15 0 15 -21 21 -33 9z"/>
<path d="M2952 3551 c2 -7 7 -12 11 -12 12 1 9 15 -3 20 -7 2 -11 -2 -8 -8z"/>
<path d="M3230 3505 c0 -8 7 -15 15 -15 8 0 15 7 15 15 0 8 -7 15 -15 15 -8 0
-15 -7 -15 -15z"/>
<path d="M2932 3494 c4 -21 22 -23 26 -1 2 10 -3 17 -13 17 -10 0 -15 -6 -13
-16z"/>
<path d="M2904 3449 c-10 -17 13 -36 27 -22 12 12 4 33 -11 33 -5 0 -12 -5
-16 -11z"/>
<path d="M3270 3430 c0 -5 5 -10 10 -10 6 0 10 5 10 10 0 6 -4 10 -10 10 -5 0
-10 -4 -10 -10z"/>
<path d="M3244 3389 c-10 -17 13 -36 27 -22 12 12 4 33 -11 33 -5 0 -12 -5
-16 -11z"/>
<path d="M3300 3360 c0 -5 5 -10 10 -10 6 0 10 5 10 10 0 6 -4 10 -10 10 -5 0
-10 -4 -10 -10z"/>
<path d="M3280 3304 c0 -17 22 -14 28 4 2 7 -3 12 -12 12 -9 0 -16 -7 -16 -16z"/>
<path d="M2800 3300 c0 -5 5 -10 10 -10 6 0 10 5 10 10 0 6 -4 10 -10 10 -5 0
-10 -4 -10 -10z"/>
<path d="M2782 3251 c4 -13 18 -16 19 -4 0 4 -5 9 -11 12 -7 2 -11 -2 -8 -8z"/>
<path d="M3316 3242 c-3 -6 -1 -14 5 -17 15 -10 25 3 12 16 -7 7 -13 7 -17 1z"/>
<path d="M2760 3195 c0 -8 7 -15 15 -15 8 0 15 7 15 15 0 8 -7 15 -15 15 -8 0
-15 -7 -15 -15z"/>
<path d="M3290 3180 c0 -15 5 -20 18 -18 9 2 17 10 17 18 0 8 -8 16 -17 18
-13 2 -18 -3 -18 -18z"/>
<path d="M3350 3160 c0 -5 5 -10 10 -10 6 0 10 5 10 10 0 6 -4 10 -10 10 -5 0
-10 -4 -10 -10z"/>
<path d="M2742 3144 c4 -21 22 -23 26 -1 2 10 -3 17 -13 17 -10 0 -15 -6 -13
-16z"/>
<path d="M3324 3119 c-10 -17 13 -36 27 -22 12 12 4 33 -11 33 -5 0 -12 -5
-16 -11z"/>
<path d="M4650 3110 c0 -5 5 -10 10 -10 6 0 10 5 10 10 0 6 -4 10 -10 10 -5 0
-10 -4 -10 -10z"/>
<path d="M4700 3090 c0 -5 5 -10 10 -10 6 0 10 5 10 10 0 6 -4 10 -10 10 -5 0
-10 -4 -10 -10z"/>
<path d="M2957 3083 c-4 -3 -7 -12 -7 -20 0 -15 26 -18 34 -4 7 11 -18 33 -27
24z"/>
<path d="M4400 3080 c0 -5 5 -10 10 -10 6 0 10 5 10 10 0 6 -4 10 -10 10 -5 0
-10 -4 -10 -10z"/>
<path d="M4577 3084 c-8 -8 1 -24 14 -24 5 0 9 7 9 15 0 15 -12 20 -23 9z"/>
<path d="M4754 3076 c-8 -22 3 -33 18 -18 9 9 9 15 0 24 -9 9 -13 7 -18 -6z"/>
<path d="M4276 3071 c-4 -5 -2 -12 3 -15 5 -4 12 -2 15 3 4 5 2 12 -3 15 -5 4
-12 2 -15 -3z"/>
<path d="M4455 3070 c-4 -6 -3 -16 3 -22 6 -6 12 -6 17 2 4 6 3 16 -3 22 -6 6
-12 6 -17 -2z"/>
<path d="M4627 3074 c-14 -15 -6 -34 14 -34 14 0 19 5 17 17 -3 18 -20 27 -31
17z"/>
<path d="M2655 3060 c-3 -5 -1 -10 4 -10 6 0 11 5 11 10 0 6 -2 10 -4 10 -3 0
-8 -4 -11 -10z"/>
<path d="M3004 3059 c-10 -17 13 -36 27 -22 12 12 4 33 -11 33 -5 0 -12 -5
-16 -11z"/>
<path d="M4805 3060 c-4 -6 -3 -16 3 -22 6 -6 12 -6 17 2 4 6 3 16 -3 22 -6 6
-12 6 -17 -2z"/>
<path d="M4150 3050 c0 -5 5 -10 10 -10 6 0 10 5 10 10 0 6 -4 10 -10 10 -5 0
-10 -4 -10 -10z"/>
<path d="M4320 3045 c0 -8 7 -15 15 -15 8 0 15 7 15 15 0 8 -7 15 -15 15 -8 0
-15 -7 -15 -15z"/>
<path d="M3360 3034 c0 -9 5 -14 12 -12 18 6 21 28 4 28 -9 0 -16 -7 -16 -16z"/>
<path d="M4020 3034 c0 -9 5 -14 12 -12 18 6 21 28 4 28 -9 0 -16 -7 -16 -16z"/>
<path d="M4196 3041 c-7 -11 18 -33 27 -24 4 3 7 12 7 20 0 15 -26 18 -34 4z"/>
<path d="M3720 3030 c0 -5 5 -10 10 -10 6 0 10 5 10 10 0 6 -4 10 -10 10 -5 0
-10 -4 -10 -10z"/>
<path d="M3895 3031 c-7 -12 12 -24 25 -16 11 7 4 25 -10 25 -5 0 -11 -4 -15
-9z"/>
<path d="M4077 3033 c-4 -3 -7 -12 -7 -20 0 -15 26 -18 34 -4 7 11 -18 33 -27
24z"/>
<path d="M4725 3030 c-4 -7 -3 -16 3 -22 14 -14 45 -2 40 15 -6 16 -34 21 -43
7z"/>
<path d="M4865 3030 c3 -5 8 -10 11 -10 2 0 4 5 4 10 0 6 -5 10 -11 10 -5 0
-7 -4 -4 -10z"/>
<path d="M2930 3015 c0 -8 7 -15 15 -15 8 0 15 7 15 15 0 8 -7 15 -15 15 -8 0
-15 -7 -15 -15z"/>
<path d="M3420 3020 c0 -5 5 -10 10 -10 6 0 10 5 10 10 0 6 -4 10 -10 10 -5 0
-10 -4 -10 -10z"/>
<path d="M3596 3023 c-11 -11 -6 -23 9 -23 8 0 15 4 15 9 0 13 -16 22 -24 14z"/>
<path d="M2630 3006 c0 -9 7 -16 16 -16 9 0 14 5 12 12 -6 18 -28 21 -28 4z"/>
<path d="M3770 3005 c0 -8 7 -15 15 -15 8 0 15 7 15 15 0 8 -7 15 -15 15 -8 0
-15 -7 -15 -15z"/>
<path d="M2336 3001 c-4 -7 -5 -15 -2 -18 9 -9 19 4 14 18 -4 11 -6 11 -12 0z"/>
<path d="M3470 2995 c0 -9 5 -15 11 -13 6 2 11 8 11 13 0 5 -5 11 -11 13 -6 2
-11 -4 -11 -13z"/>
<path d="M3640 2995 c0 -10 7 -15 18 -13 21 4 19 22 -2 26 -10 2 -16 -3 -16
-13z"/>
<path d="M4782 2998 c6 -18 28 -21 28 -4 0 9 -7 16 -16 16 -9 0 -14 -5 -12
-12z"/>
<path d="M2510 2990 c0 -5 5 -10 10 -10 6 0 10 5 10 10 0 6 -4 10 -10 10 -5 0
-10 -4 -10 -10z"/>
<path d="M2990 2989 c0 -5 5 -7 10 -4 6 3 10 8 10 11 0 2 -4 4 -10 4 -5 0 -10
-5 -10 -11z"/>
<path d="M3515 2991 c-8 -15 3 -31 21 -31 9 0 14 7 12 17 -4 20 -24 28 -33 14z"/>
<path d="M2380 2975 c0 -8 7 -15 15 -15 8 0 15 7 15 15 0 8 -7 15 -15 15 -8 0
-15 -7 -15 -15z"/>
<path d="M2554 2979 c-10 -17 13 -36 27 -22 12 12 4 33 -11 33 -5 0 -12 -5
-16 -11z"/>
<path d="M3037 2984 c-9 -10 2 -24 19 -24 8 0 14 7 14 15 0 15 -21 21 -33 9z"/>
<path d="M2431 2966 c-9 -10 -8 -16 3 -25 10 -9 16 -8 25 3 9 10 8 16 -3 25
-10 9 -16 8 -25 -3z"/>
<path d="M4710 2965 c0 -10 7 -15 18 -13 21 4 19 22 -2 26 -10 2 -16 -3 -16
-13z"/>
<path d="M2260 2960 c0 -5 5 -10 10 -10 6 0 10 5 10 10 0 6 -4 10 -10 10 -5 0
-10 -4 -10 -10z"/>
<path d="M2910 2960 c0 -5 7 -10 15 -10 8 0 15 5 15 10 0 6 -7 10 -15 10 -8 0
-15 -4 -15 -10z"/>
<path d="M2302 2943 c2 -10 10 -18 18 -18 8 0 16 8 18 18 2 12 -3 17 -18 17
-15 0 -20 -5 -18 -17z"/>
<path d="M4635 2940 c-8 -13 3 -30 20 -30 14 0 27 24 18 34 -10 9 -31 7 -38
-4z"/>
<path d="M3025 2920 c3 -5 8 -10 11 -10 2 0 4 5 4 10 0 6 -5 10 -11 10 -5 0
-7 -4 -4 -10z"/>
<path d="M2232 2908 c6 -18 28 -21 28 -4 0 9 -7 16 -16 16 -9 0 -14 -5 -12
-12z"/>
<path d="M2900 2904 c0 -8 5 -12 10 -9 6 3 10 10 10 16 0 5 -4 9 -10 9 -5 0
-10 -7 -10 -16z"/>
<path d="M4700 2909 c0 -5 5 -7 10 -4 6 3 10 8 10 11 0 2 -4 4 -10 4 -5 0 -10
-5 -10 -11z"/>
<path d="M2820 2875 c0 -8 7 -15 15 -15 8 0 15 7 15 15 0 8 -7 15 -15 15 -8 0
-15 -7 -15 -15z"/>
<path d="M4625 2881 c-6 -11 9 -23 19 -14 9 9 7 23 -3 23 -6 0 -12 -4 -16 -9z"/>
<path d="M2220 2860 c0 -5 5 -10 10 -10 6 0 10 5 10 10 0 6 -4 10 -10 10 -5 0
-10 -4 -10 -10z"/>
<path d="M2390 2850 c0 -15 5 -20 18 -18 9 2 17 10 17 18 0 8 -8 16 -17 18
-13 2 -18 -3 -18 -18z"/>
<path d="M2574 2855 c-9 -23 10 -40 25 -22 9 11 8 17 -4 27 -12 10 -16 9 -21
-5z"/>
<path d="M2750 2839 c0 -24 23 -21 28 4 2 10 -3 17 -12 17 -10 0 -16 -9 -16
-21z"/>
<path d="M3050 2850 c0 -5 7 -10 15 -10 8 0 15 5 15 10 0 6 -7 10 -15 10 -8 0
-15 -4 -15 -10z"/>
<path d="M4550 2845 c0 -9 5 -15 11 -13 6 2 11 8 11 13 0 5 -5 11 -11 13 -6 2
-11 -4 -11 -13z"/>
<path d="M2270 2835 c0 -8 7 -15 15 -15 8 0 15 7 15 15 0 8 -7 15 -15 15 -8 0
-15 -7 -15 -15z"/>
<path d="M2444 2839 c-10 -17 13 -36 27 -22 12 12 4 33 -11 33 -5 0 -12 -5
-16 -11z"/>
<path d="M2622 2828 c5 -15 28 -18 29 -3 0 6 -7 12 -17 13 -10 3 -15 -1 -12
-10z"/>
<path d="M2322 2819 c2 -6 8 -10 13 -10 5 0 11 4 13 10 2 6 -4 11 -13 11 -9 0
-15 -5 -13 -11z"/>
<path d="M2810 2819 c0 -5 5 -7 10 -4 6 3 10 8 10 11 0 2 -4 4 -10 4 -5 0 -10
-5 -10 -11z"/>
<path d="M4480 2815 c0 -9 5 -15 11 -13 6 2 11 8 11 13 0 5 -5 11 -11 13 -6 2
-11 -4 -11 -13z"/>
<path d="M2500 2810 c0 -5 7 -10 15 -10 8 0 15 5 15 10 0 6 -7 10 -15 10 -8 0
-15 -4 -15 -10z"/>
<path d="M2680 2810 c0 -5 5 -10 10 -10 6 0 10 5 10 10 0 6 -4 10 -10 10 -5 0
-10 -4 -10 -10z"/>
<path d="M2380 2800 c0 -5 5 -10 11 -10 5 0 7 5 4 10 -3 6 -8 10 -11 10 -2 0
-4 -4 -4 -10z"/>
<path d="M3090 2780 c0 -5 5 -10 10 -10 6 0 10 5 10 10 0 6 -4 10 -10 10 -5 0
-10 -4 -10 -10z"/>
<path d="M4402 2778 c5 -15 28 -18 29 -3 0 6 -7 12 -17 13 -10 3 -15 -1 -12
-10z"/>
<path d="M3141 2766 c-12 -14 -5 -26 16 -26 15 0 18 26 4 34 -5 3 -14 0 -20
-8z"/>
<path d="M3494 2759 c-10 -17 13 -36 27 -22 12 12 4 33 -11 33 -5 0 -12 -5
-16 -11z"/>
<path d="M3195 2750 c-7 -12 2 -30 16 -30 12 0 12 27 0 35 -5 3 -12 1 -16 -5z"/>
<path d="M4330 2745 c0 -10 7 -15 18 -13 21 4 19 22 -2 26 -10 2 -16 -3 -16
-13z"/>
<path d="M3370 2735 c0 -8 7 -15 15 -15 8 0 15 7 15 15 0 8 -7 15 -15 15 -8 0
-15 -7 -15 -15z"/>
<path d="M3554 2736 c-8 -22 3 -33 18 -18 9 9 9 15 0 24 -9 9 -13 7 -18 -6z"/>
<path d="M3250 2720 c0 -5 5 -10 10 -10 6 0 10 5 10 10 0 6 -4 10 -10 10 -5 0
-10 -4 -10 -10z"/>
<path d="M3430 2714 c0 -8 5 -12 10 -9 6 4 8 11 5 16 -9 14 -15 11 -15 -7z"/>
<path d="M3300 2700 c0 -5 5 -10 10 -10 6 0 10 5 10 10 0 6 -4 10 -10 10 -5 0
-10 -4 -10 -10z"/>
<path d="M4320 2689 c0 -5 5 -7 10 -4 6 3 10 8 10 11 0 2 -4 4 -10 4 -5 0 -10
-5 -10 -11z"/>
<path d="M3530 2674 c0 -9 5 -14 12 -12 18 6 21 28 4 28 -9 0 -16 -7 -16 -16z"/>
<path d="M4246 2661 c-4 -5 -2 -12 3 -15 5 -4 12 -2 15 3 4 5 2 12 -3 15 -5 4
-12 2 -15 -3z"/>
<path d="M3465 2640 c3 -5 8 -10 11 -10 2 0 4 5 4 10 0 6 -5 10 -11 10 -5 0
-7 -4 -4 -10z"/>
<path d="M4175 2629 c-10 -15 3 -25 16 -12 7 7 7 13 1 17 -6 3 -14 1 -17 -5z"/>
<path d="M3444 2596 c-8 -22 3 -33 18 -18 9 9 9 15 0 24 -9 9 -13 7 -18 -6z"/>
<path d="M4097 2594 c-8 -8 1 -24 14 -24 5 0 9 7 9 15 0 15 -12 20 -23 9z"/>
<path d="M4020 2555 c0 -10 7 -15 18 -13 21 4 19 22 -2 26 -10 2 -16 -3 -16
-13z"/>
<path d="M3950 2526 c0 -8 4 -17 9 -20 11 -7 33 18 24 27 -12 12 -33 7 -33 -7z"/>
<path d="M3940 2470 c0 -5 5 -10 10 -10 6 0 10 5 10 10 0 6 -4 10 -10 10 -5 0
-10 -4 -10 -10z"/>
<path d="M3865 2440 c-3 -5 1 -10 10 -10 9 0 13 5 10 10 -3 6 -8 10 -10 10 -2
0 -7 -4 -10 -10z"/>
<path d="M3795 2409 c-10 -15 3 -25 16 -12 7 7 7 13 1 17 -6 3 -14 1 -17 -5z"/>
<path d="M2747 2014 c-8 -8 1 -24 14 -24 5 0 9 7 9 15 0 15 -12 20 -23 9z"/>
<path d="M2679 2008 c-9 -31 -7 -48 6 -48 17 0 20 16 5 25 -6 4 -8 11 -5 16 4
5 4 9 1 9 -3 0 -6 -1 -7 -2z"/>
<path d="M2020 1969 c0 -5 5 -7 10 -4 6 3 10 8 10 11 0 2 -4 4 -10 4 -5 0 -10
-5 -10 -11z"/>
<path d="M2200 1970 c0 -5 5 -10 11 -10 5 0 7 5 4 10 -3 6 -8 10 -11 10 -2 0
-4 -4 -4 -10z"/>
<path d="M1890 1960 c0 -5 5 -10 10 -10 6 0 10 5 10 10 0 6 -4 10 -10 10 -5 0
-10 -4 -10 -10z"/>
<path d="M2370 1960 c0 -5 5 -10 10 -10 6 0 10 5 10 10 0 6 -4 10 -10 10 -5 0
-10 -4 -10 -10z"/>
<path d="M3690 1960 c0 -5 5 -10 10 -10 6 0 10 5 10 10 0 6 -4 10 -10 10 -5 0
-10 -4 -10 -10z"/>
<path d="M1766 1953 c-11 -11 -6 -23 9 -23 8 0 15 4 15 9 0 13 -16 22 -24 14z"/>
<path d="M2070 1950 c0 -5 5 -10 10 -10 6 0 10 5 10 10 0 6 -4 10 -10 10 -5 0
-10 -4 -10 -10z"/>
<path d="M2247 1954 c-8 -8 1 -24 14 -24 5 0 9 7 9 15 0 15 -12 20 -23 9z"/>
<path d="M1940 1935 c0 -8 7 -15 15 -15 8 0 15 7 15 15 0 8 -7 15 -15 15 -8 0
-15 -7 -15 -15z"/>
<path d="M2122 1934 c4 -21 22 -23 26 -1 2 10 -3 17 -13 17 -10 0 -15 -6 -13
-16z"/>
<path d="M2294 1939 c-10 -17 13 -36 27 -22 12 12 4 33 -11 33 -5 0 -12 -5
-16 -11z"/>
<path d="M1814 1929 c-10 -17 13 -36 27 -22 12 12 4 33 -11 33 -5 0 -12 -5
-16 -11z"/>
<path d="M1990 1920 c0 -15 5 -20 18 -18 9 2 17 10 17 18 0 8 -8 16 -17 18
-13 2 -18 -3 -18 -18z"/>
<path d="M2650 1920 c0 -15 5 -20 18 -18 9 2 17 10 17 18 0 8 -8 16 -17 18
-13 2 -18 -3 -18 -18z"/>
<path d="M3664 1919 c-10 -17 13 -36 27 -22 12 12 4 33 -11 33 -5 0 -12 -5
-16 -11z"/>
<path d="M1690 1905 c0 -8 7 -15 15 -15 8 0 15 7 15 15 0 8 -7 15 -15 15 -8 0
-15 -7 -15 -15z"/>
<path d="M2580 1885 c0 -8 7 -15 15 -15 8 0 15 7 15 15 0 8 -7 15 -15 15 -8 0
-15 -7 -15 -15z"/>
<path d="M1670 1855 c0 -10 7 -15 18 -13 21 4 19 22 -2 26 -10 2 -16 -3 -16
-13z"/>
<path d="M2510 1856 c0 -9 7 -16 16 -16 17 0 14 22 -4 28 -7 2 -12 -3 -12 -12z"/>
<path d="M1717 1846 c-7 -17 18 -40 33 -31 5 3 10 15 10 26 0 23 -35 27 -43 5z"/>
<path d="M3707 1844 c-8 -8 1 -24 14 -24 5 0 9 7 9 15 0 15 -12 20 -23 9z"/>
<path d="M2430 1821 c0 -15 6 -21 21 -21 14 0 19 5 17 17 -5 26 -38 29 -38 4z"/>
<path d="M1950 1809 c0 -14 5 -19 17 -17 26 5 29 38 4 38 -15 0 -21 -6 -21
-21z"/>
<path d="M2127 1816 c-8 -20 20 -43 35 -28 14 14 3 42 -16 42 -7 0 -16 -6 -19
-14z"/>
<path d="M1660 1804 c0 -8 5 -12 10 -9 6 4 8 11 5 16 -9 14 -15 11 -15 -7z"/>
<path d="M1836 1813 c-12 -12 -6 -33 9 -33 8 0 15 6 15 14 0 17 -14 28 -24 19z"/>
<path d="M2006 1801 c-3 -5 1 -14 8 -20 16 -13 32 2 21 19 -8 12 -22 13 -29 1z"/>
<path d="M1710 1785 c0 -8 5 -15 10 -15 6 0 10 7 10 15 0 8 -4 15 -10 15 -5 0
-10 -7 -10 -15z"/>
<path d="M1885 1781 c-6 -11 9 -23 19 -14 9 9 7 23 -3 23 -6 0 -12 -4 -16 -9z"/>
<path d="M2066 1783 c-11 -11 -6 -23 9 -23 8 0 15 4 15 9 0 13 -16 22 -24 14z"/>
<path d="M1760 1760 c0 -5 5 -10 10 -10 6 0 10 5 10 10 0 6 -4 10 -10 10 -5 0
-10 -4 -10 -10z"/>
<path d="M1940 1760 c0 -5 5 -10 10 -10 6 0 10 5 10 10 0 6 -4 10 -10 10 -5 0
-10 -4 -10 -10z"/>
<path d="M2120 1755 c0 -8 5 -15 10 -15 6 0 10 7 10 15 0 8 -4 15 -10 15 -5 0
-10 -7 -10 -15z"/>
<path d="M3740 1759 c0 -5 5 -7 10 -4 6 3 10 8 10 11 0 2 -4 4 -10 4 -5 0 -10
-5 -10 -11z"/>
<path d="M2163 1744 c-7 -18 17 -38 31 -24 11 11 1 40 -14 40 -6 0 -13 -7 -17
-16z"/>
<path d="M3715 1720 c-3 -6 1 -13 10 -16 19 -8 30 0 20 15 -8 14 -22 14 -30 1z"/>
<path d="M2145 1690 c-3 -6 1 -13 10 -16 19 -8 30 0 20 15 -8 14 -22 14 -30 1z"/>
<path d="M2804 1689 c-8 -14 11 -33 25 -25 6 4 11 14 11 22 0 16 -26 19 -36 3z"/>
<path d="M2862 1664 c4 -21 22 -23 26 -1 2 10 -3 17 -13 17 -10 0 -15 -6 -13
-16z"/>
<path d="M2735 1660 c-10 -17 12 -37 25 -24 8 8 6 15 -4 23 -10 9 -16 9 -21 1z"/>
<path d="M2910 1646 c0 -8 4 -17 9 -20 11 -7 33 18 24 27 -12 12 -33 7 -33 -7z"/>
<path d="M2135 1640 c-4 -6 -3 -16 3 -22 6 -6 12 -6 17 2 4 6 3 16 -3 22 -6 6
-12 6 -17 -2z"/>
<path d="M3755 1640 c-3 -5 1 -10 10 -10 9 0 13 5 10 10 -3 6 -8 10 -10 10 -2
0 -7 -4 -10 -10z"/>
<path d="M2962 1623 c2 -10 10 -18 18 -18 8 0 16 8 18 18 2 12 -3 17 -18 17
-15 0 -20 -5 -18 -17z"/>
<path d="M2660 1615 c0 -10 7 -15 18 -13 21 4 19 22 -2 26 -10 2 -16 -3 -16
-13z"/>
<path d="M2590 1580 c0 -11 7 -20 15 -20 8 0 15 9 15 20 0 11 -7 20 -15 20 -8
0 -15 -9 -15 -20z"/>
<path d="M3730 1585 c0 -8 7 -15 15 -15 8 0 15 7 15 15 0 8 -7 15 -15 15 -8 0
-15 -7 -15 -15z"/>
<path d="M2112 1581 c4 -13 18 -16 19 -4 0 4 -5 9 -11 12 -7 2 -11 -2 -8 -8z"/>
<path d="M2650 1559 c0 -5 5 -7 10 -4 6 3 10 8 10 11 0 2 -4 4 -10 4 -5 0 -10
-5 -10 -11z"/>
<path d="M3005 1550 c3 -5 8 -10 11 -10 2 0 4 5 4 10 0 6 -5 10 -11 10 -5 0
-7 -4 -4 -10z"/>
<path d="M2096 1531 c-4 -5 -2 -12 3 -15 5 -4 12 -2 15 3 4 5 2 12 -3 15 -5 4
-12 2 -15 -3z"/>
<path d="M2575 1530 c-3 -5 1 -10 10 -10 9 0 13 5 10 10 -3 6 -8 10 -10 10 -2
0 -7 -4 -10 -10z"/>
<path d="M3060 1529 c0 -5 5 -7 10 -4 6 3 10 8 10 11 0 2 -4 4 -10 4 -5 0 -10
-5 -10 -11z"/>
<path d="M3110 1515 c0 -8 5 -15 10 -15 6 0 10 7 10 15 0 8 -4 15 -10 15 -5 0
-10 -7 -10 -15z"/>
<path d="M3767 1524 c-8 -8 1 -24 14 -24 5 0 9 7 9 15 0 15 -12 20 -23 9z"/>
<path d="M2500 1495 c0 -9 5 -15 11 -13 6 2 11 8 11 13 0 5 -5 11 -11 13 -6 2
-11 -4 -11 -13z"/>
<path d="M3160 1495 c0 -9 5 -15 11 -13 6 2 11 8 11 13 0 5 -5 11 -11 13 -6 2
-11 -4 -11 -13z"/>
<path d="M3210 1475 c0 -8 7 -15 15 -15 8 0 15 7 15 15 0 8 -7 15 -15 15 -8 0
-15 -7 -15 -15z"/>
<path d="M2075 1470 c3 -5 8 -10 11 -10 2 0 4 5 4 10 0 6 -5 10 -11 10 -5 0
-7 -4 -4 -10z"/>
<path d="M2430 1466 c0 -9 7 -16 16 -16 17 0 14 22 -4 28 -7 2 -12 -3 -12 -12z"/>
<path d="M3742 1463 c4 -21 33 -25 33 -3 0 8 -8 16 -18 18 -14 3 -18 -1 -15
-15z"/>
<path d="M3262 1458 c5 -15 28 -18 29 -3 0 6 -7 12 -17 13 -10 3 -15 -1 -12
-10z"/>
<path d="M3315 1451 c-8 -15 3 -31 21 -31 9 0 14 7 12 17 -4 20 -24 28 -33 14z"/>
<path d="M2354 1439 c-10 -17 13 -36 27 -22 12 12 4 33 -11 33 -5 0 -12 -5
-16 -11z"/>
<path d="M3805 1440 c3 -5 8 -10 11 -10 2 0 4 5 4 10 0 6 -5 10 -11 10 -5 0
-7 -4 -4 -10z"/>
<path d="M3371 1431 c-8 -5 -10 -14 -7 -20 9 -13 33 -15 40 -2 9 14 -18 31
-33 22z"/>
<path d="M2107 1414 c-14 -14 -7 -35 11 -32 9 2 17 10 17 17 0 16 -18 25 -28
15z"/>
<path d="M2280 1396 c0 -8 4 -17 9 -20 11 -7 33 18 24 27 -12 12 -33 7 -33 -7z"/>
<path d="M3780 1384 c0 -9 5 -14 12 -12 18 6 21 28 4 28 -9 0 -16 -7 -16 -16z"/>
<path d="M2340 1380 c0 -5 5 -10 10 -10 6 0 10 5 10 10 0 6 -4 10 -10 10 -5 0
-10 -4 -10 -10z"/>
<path d="M2205 1370 c-4 -7 -3 -16 3 -22 14 -14 45 -2 40 15 -6 16 -34 21 -43
7z"/>
<path d="M2085 1349 c-10 -15 1 -23 20 -15 9 3 13 10 10 16 -8 13 -22 13 -30
-1z"/>
<path d="M2133 1334 c-7 -18 17 -38 31 -24 11 11 1 40 -14 40 -6 0 -13 -7 -17
-16z"/>
<path d="M2270 1340 c0 -5 5 -10 10 -10 6 0 10 5 10 10 0 6 -4 10 -10 10 -5 0
-10 -4 -10 -10z"/>
<path d="M3460 1325 c0 -8 5 -15 10 -15 6 0 10 7 10 15 0 8 -4 15 -10 15 -5 0
-10 -7 -10 -15z"/>
<path d="M3815 1320 c-3 -5 1 -10 9 -10 9 0 16 5 16 10 0 6 -4 10 -9 10 -6 0
-13 -4 -16 -10z"/>
<path d="M2196 1311 c-4 -5 -2 -12 3 -15 5 -4 12 -2 15 3 4 5 2 12 -3 15 -5 4
-12 2 -15 -3z"/>
<path d="M3512 1311 c2 -7 7 -12 11 -12 12 1 9 15 -3 20 -7 2 -11 -2 -8 -8z"/>
<path d="M2070 1290 c0 -5 5 -10 10 -10 6 0 10 5 10 10 0 6 -4 10 -10 10 -5 0
-10 -4 -10 -10z"/>
<path d="M3562 1289 c5 -14 21 -14 26 0 2 6 -4 11 -13 11 -9 0 -15 -5 -13 -11z"/>
<path d="M3614 1279 c-10 -17 13 -36 27 -22 12 12 4 33 -11 33 -5 0 -12 -5
-16 -11z"/>
<path d="M2125 1270 c4 -6 11 -8 16 -5 14 9 11 15 -7 15 -8 0 -12 -5 -9 -10z"/>
<path d="M3790 1265 c0 -8 7 -15 15 -15 8 0 15 7 15 15 0 8 -7 15 -15 15 -8 0
-15 -7 -15 -15z"/>
<path d="M3664 1259 c-10 -17 13 -36 27 -22 12 12 4 33 -11 33 -5 0 -12 -5
-16 -11z"/>
<path d="M3720 1229 c0 -24 23 -21 28 4 2 10 -3 17 -12 17 -10 0 -16 -9 -16
-21z"/>
<path d="M3776 1222 c-3 -6 -1 -14 5 -17 15 -10 25 3 12 16 -7 7 -13 7 -17 1z"/>
</g>
</svg>
